<?xml version="1.0" encoding="utf-8"?>
<!-- Generator: Adobe Illustrator 16.0.0, SVG Export Plug-In . SVG Version: 6.00 Build 0)  -->
<!DOCTYPE svg PUBLIC "-//W3C//DTD SVG 1.1//EN" "http://www.w3.org/Graphics/SVG/1.1/DTD/svg11.dtd">
<svg version="1.1" id="Layer_1" xmlns="http://www.w3.org/2000/svg" xmlns:xlink="http://www.w3.org/1999/xlink" x="0px" y="0px"
	 width="144px" height="162px" viewBox="0 0 144 162" enable-background="new 0 0 144 162" xml:space="preserve">
<g>
	<rect x="15" y="31" fill="#EFCAA0" width="110" height="76"/>
	<rect x="43" y="63" width="11" height="22"/>
	<rect x="86" y="63" width="11" height="22"/>
	<rect x="65" fill="#8C6239" width="79" height="47"/>
	<rect x="1" y="7" fill="#8C6239" width="59" height="36"/>
	<rect x="125" y="74" fill="#EFCAA0" width="15" height="22"/>
	<rect x="118" y="31" fill="#8C6239" width="13" height="51"/>
	<path fill="#8C6239" d="M125,107c0,30-24.6,55-55,55s-55-25-55-55c0,0,24.6,0,55,0S125,107,125,107z"/>
	<rect x="54" y="118" fill="#EFCAA0" width="32" height="11"/>
	<rect y="74" fill="#EFCAA0" width="19" height="22"/>
	<rect x="9" y="36" fill="#8C6239" width="14" height="46"/>
</g>
</svg>
